<svg width="48" height="19" viewBox="0 0 48 19" fill="none" xmlns="http://www.w3.org/2000/svg">
<path d="M12.25 8.33331C12.25 12.4166 7 15.9166 7 15.9166C7 15.9166 1.75 12.4166 1.75 8.33331C1.75 6.94093 2.30312 5.60557 3.28769 4.621C4.27226 3.63644 5.60761 3.08331 7 3.08331C8.39239 3.08331 9.72774 3.63644 10.7123 4.621C11.6969 5.60557 12.25 6.94093 12.25 8.33331Z" fill="#FFC351"/>
<path d="M7 10.0833C7.9665 10.0833 8.75 9.29981 8.75 8.33331C8.75 7.36681 7.9665 6.58331 7 6.58331C6.0335 6.58331 5.25 7.36681 5.25 8.33331C5.25 9.29981 6.0335 10.0833 7 10.0833Z" fill="white"/>
<path d="M17.994 14V4.13H24.756V5.824H20.066V8.134H24.448V9.842H20.066V12.306H24.756V14H17.994ZM26.2886 14V4.13H28.4026V9.968H28.4306L30.9646 7.126H33.4706L30.5586 10.416L33.6106 14H31.0626L28.4306 11.032H28.4026V14H26.2886ZM34.3674 16.52L35.6834 13.622L32.8554 7.126H35.0814L36.8034 11.494L38.5814 7.126H40.6814L36.5234 16.52H34.3674ZM44.4822 14.154C43.7356 14.154 43.0822 14.0093 42.5222 13.72C41.9716 13.4213 41.5469 13.0013 41.2482 12.46C40.9496 11.9187 40.8002 11.2793 40.8002 10.542C40.8002 9.80467 40.9496 9.17 41.2482 8.638C41.5469 8.106 41.9716 7.7 42.5222 7.42C43.0822 7.13067 43.7356 6.986 44.4822 6.986C44.9209 6.986 45.3642 7.05133 45.8122 7.182C46.2602 7.31267 46.6242 7.49933 46.9042 7.742L46.3162 9.198C46.0829 9.01133 45.8216 8.86667 45.5322 8.764C45.2429 8.652 44.9629 8.596 44.6922 8.596C44.1416 8.596 43.7122 8.76867 43.4042 9.114C43.1056 9.45 42.9562 9.93067 42.9562 10.556C42.9562 11.172 43.1056 11.6573 43.4042 12.012C43.7122 12.3573 44.1416 12.53 44.6922 12.53C44.9536 12.53 45.2289 12.4787 45.5182 12.376C45.8169 12.2733 46.0829 12.124 46.3162 11.928L46.9042 13.384C46.6242 13.6267 46.2602 13.818 45.8122 13.958C45.3642 14.0887 44.9209 14.154 44.4822 14.154Z" fill="black"/>
</svg>
