<svg width="13" height="15" viewBox="0 0 13 15" fill="none" xmlns="http://www.w3.org/2000/svg">
<path fill-rule="evenodd" clip-rule="evenodd" d="M1.26253 0.0205482C0.682639 0.111898 0.257528 0.502994 0.0524444 1.13382C0.00183333 1.28947 0 1.46918 0 6.23813V11.1811L0.0615278 11.3877C0.21875 11.9154 0.657389 12.3462 1.14719 12.4541C1.249 12.4765 2.15467 12.4865 4.08372 12.4865C6.75233 12.4865 6.87422 12.4888 6.90008 12.5399C6.91497 12.5692 7.09767 13.0742 7.30606 13.6619C7.51447 14.2497 7.70372 14.7725 7.72658 14.8237C7.77714 14.9368 7.92928 15.0207 8.03808 14.9955C8.14086 14.9717 8.23467 14.8659 9.35753 13.508C9.99778 12.7338 10.3254 12.3155 10.3362 12.2588C10.348 12.1964 10.2775 11.9432 10.0723 11.3117L9.79228 10.4499L9.93781 10.3174C10.0178 10.2445 10.1517 10.1165 10.2352 10.0329L10.3872 9.88091L11.0062 10.523C11.3467 10.8761 11.6643 11.1863 11.7119 11.2124C11.9445 11.3394 12.2197 11.0562 12.0977 10.8154C12.0827 10.7858 11.7823 10.4606 11.4302 10.0928C11.0781 9.72496 10.7958 9.40805 10.8028 9.38857C10.8099 9.36907 10.9023 9.22978 11.0082 9.07903C11.4267 8.48317 11.8282 7.70943 12.0004 7.16708L12.0951 6.86883L12.4844 6.85417C12.8427 6.84067 12.8787 6.83419 12.9368 6.77267C12.9859 6.72081 13 6.67267 13 6.55747C13 6.43124 12.9884 6.39847 12.9221 6.33825C12.8468 6.26987 12.8284 6.26735 12.3804 6.26415C12.1253 6.26233 11.6323 6.26362 11.2847 6.26702L10.6528 6.27321V6.07822C10.6528 5.84853 10.6042 5.7306 10.4823 5.66398C10.3711 5.60329 10.2383 5.62869 10.1503 5.72746C10.0951 5.78939 10.0809 5.84216 10.0694 6.02768L10.0556 6.2528L9.24675 6.26057L8.43792 6.26834L8.08406 5.17517C7.88944 4.57392 7.45806 3.23714 7.12544 2.20455C6.79281 1.17195 6.50211 0.280897 6.47944 0.224427C6.45678 0.167957 6.41019 0.0953528 6.37592 0.0630841C6.31469 0.00541127 6.27156 0.00435521 3.86514 0.000336299C2.51847 -0.00189317 1.34731 0.00720072 1.26253 0.0205482ZM4.27839 3.7909C4.3295 3.81651 4.38928 3.87873 4.41231 3.93025C4.48778 4.0991 5.93056 8.38983 5.93056 8.44542C5.93056 8.52515 5.85672 8.66259 5.78564 8.71516C5.66025 8.80791 5.42228 8.74974 5.35319 8.60943C5.33464 8.57177 5.21272 8.22412 5.08228 7.83689C4.95183 7.44967 4.82506 7.0765 4.80053 7.00765L4.75594 6.88242L4.12964 6.89031L3.50331 6.89817L3.2155 7.74824C3.05722 8.21579 2.90808 8.62123 2.88411 8.64918C2.81053 8.73508 2.66708 8.77048 2.55342 8.73085C2.44386 8.69269 2.3475 8.55645 2.34733 8.43949C2.34722 8.36818 3.78844 4.07111 3.86614 3.91112C3.90622 3.82851 4.03708 3.74799 4.13469 3.74579C4.16294 3.74517 4.22758 3.76547 4.27839 3.7909ZM3.93433 5.62309C3.82442 5.94965 3.73936 6.22202 3.74533 6.22833C3.75131 6.23464 3.93153 6.2361 4.14583 6.23162L4.53544 6.22346L4.33481 5.62637L4.13417 5.02932L3.93433 5.62309ZM11.4739 6.93067C11.4644 6.97104 11.3995 7.1415 11.3299 7.30945C11.1337 7.78242 10.7795 8.40124 10.4328 8.87665L10.3805 8.94837L10.3014 8.84983C10.0779 8.57168 9.92922 8.35926 9.84428 8.19695C9.71142 7.94314 9.59631 7.82222 9.4875 7.82222C9.30986 7.82222 9.18056 7.95291 9.18056 8.13247C9.18056 8.29232 9.47875 8.78536 9.84144 9.22515L9.99442 9.41066L9.80383 9.61349C9.699 9.72505 9.60419 9.80657 9.59311 9.79466C9.56792 9.76755 8.65278 6.94273 8.65278 6.89207C8.65278 6.86267 8.94644 6.85522 10.0721 6.85613L11.4914 6.85725L11.4739 6.93067Z" fill="black"/>
</svg>
